<svg width="916" height="97" viewBox="0 0 916 97" fill="none" xmlns="http://www.w3.org/2000/svg">
<g clip-path="url(#clip0_3932_4322)">
<path d="M232.405 68.6827L242.937 59.0478C252.208 72.6509 267.089 76.7304 279.449 76.7304C294.213 76.7304 304.857 71.8572 304.857 64.6032C304.857 55.9893 297.991 55.3071 273.951 52.5874C253.005 50.2065 238.124 46.8092 238.124 30.9413C238.124 16.2058 252.775 5.43848 275.667 5.43848C293.866 5.43848 310.346 12.2377 317.329 22.8936L306.798 31.6189C300.845 22.8936 289.399 18.0159 275.09 18.0159C258.835 18.0159 251.969 23.5712 251.969 29.4654C251.969 35.9258 257.232 37.5131 278.755 40.0054C303.709 42.8411 319.157 45.5608 319.157 62.8999C319.157 80.239 301.417 89.3077 279.097 89.3077C258.835 89.3077 240.064 81.0327 232.396 68.6781L232.405 68.6827Z" fill="white"/>
<path d="M228.304 94.7536H213.995L169.698 0.000976562H184.007L228.304 94.7536Z" fill="white"/>
<path d="M121.51 5.43848C149.323 5.43848 169.698 23.2324 169.698 47.3754C169.698 71.5184 149.323 89.3124 121.51 89.3124C93.6977 89.3124 73.3232 71.5184 73.3232 47.3754C73.3232 23.2324 93.6977 5.43848 121.51 5.43848ZM121.51 18.2479C101.708 18.2479 88.317 30.0363 88.317 47.3754C88.317 64.7146 101.708 76.503 121.51 76.503C141.313 76.503 154.704 64.7146 154.704 47.3754C154.704 30.0363 141.313 18.2479 121.51 18.2479Z" fill="white"/>
<path d="M-0.000244141 88.0655V6.68848H14.6514V75.3721H74.6311V88.0655H-0.000244141Z" fill="white"/>
</g>
<path d="M375.047 36.7569C375.047 25.7966 382.271 20.4824 393.314 20.4824C396.304 20.4824 400.289 20.9806 402.614 21.977L401.369 28.5367C398.545 27.7063 396.47 27.3742 393.314 27.3742C386.007 27.3742 382.354 30.2804 382.354 36.923V37.5873H400.372V43.9808H382.354V81.0137H375.047V43.9808H364.502V37.5873H375.047V36.7569ZM425.149 36.7569C438.932 36.7569 449.477 45.9736 449.477 59.342C449.477 72.6273 438.932 81.927 425.149 81.927C411.199 81.927 400.737 72.6273 400.737 59.342C400.737 45.9736 411.199 36.7569 425.149 36.7569ZM425.149 75.4504C434.78 75.4504 442.253 69.1399 442.253 59.342C442.253 49.461 434.78 43.2335 425.149 43.2335C415.351 43.2335 407.878 49.461 407.878 59.342C407.878 69.1399 415.351 75.4504 425.149 75.4504ZM486.548 37.8364V45.3094C484.722 44.8942 483.559 44.6451 481.483 44.6451C471.519 44.6451 464.877 50.4574 464.877 60.5875V81.0137H457.404V37.5873H464.877V46.7209C468.115 40.9916 473.595 37.2551 481.649 37.2551C483.642 37.2551 485.386 37.5042 486.548 37.8364ZM554.287 81.0137H547.645L521.821 28.6197V81.0137H514.099V21.3958H526.471L551.049 71.5479L575.71 21.3958H587.75V81.0137H580.028V28.6197L554.287 81.0137ZM620.98 75.4504C629.366 75.4504 635.345 71.1327 637.337 65.0713L643.399 68.2266C640.825 75.5335 632.688 81.927 620.98 81.927C606.615 81.927 596.319 72.6273 596.319 59.342C596.319 46.4718 606.366 36.7569 620.98 36.7569C635.179 36.7569 644.063 46.2227 644.063 58.3456V61.2518H603.377C604.29 69.8872 611.431 75.4504 620.98 75.4504ZM620.648 43.0675C612.261 43.0675 605.37 47.7173 603.709 55.5225H636.756C636.258 49.6271 630.363 43.0675 620.648 43.0675ZM673.93 75.4504C682.316 75.4504 688.294 71.1327 690.287 65.0713L696.349 68.2266C693.775 75.5335 685.637 81.927 673.93 81.927C659.565 81.927 649.269 72.6273 649.269 59.342C649.269 46.4718 659.316 36.7569 673.93 36.7569C688.128 36.7569 697.013 46.2227 697.013 58.3456V61.2518H656.327C657.24 69.8872 664.381 75.4504 673.93 75.4504ZM673.598 43.0675C665.211 43.0675 658.319 47.7173 656.659 55.5225H689.706C689.208 49.6271 683.312 43.0675 673.598 43.0675ZM709.298 67.3962V43.9808H698.753V37.5873H709.298V24.8832H716.688V37.5873H736.782V43.9808H716.688V66.732C716.688 72.8764 720.341 74.7862 726.901 74.7862C730.555 74.7862 733.876 73.9558 737.031 72.7934L738.36 79.1869C735.038 80.5155 730.139 81.5119 725.739 81.5119C716.605 81.5119 709.298 77.8584 709.298 67.3962ZM744.688 30.0313V21.3958H752.825V30.0313H744.688ZM752.493 37.5873V81.0137H745.02V37.5873H752.493ZM763.264 81.0137V37.5873H770.737V45.2263C773.81 40.6595 779.705 36.7569 787.842 36.7569C799.965 36.7569 806.608 45.0603 806.608 56.851V81.0137H799.052V58.0135C799.052 49.7932 794.817 43.6487 785.766 43.6487C777.048 43.6487 770.737 49.6271 770.737 58.8438V81.0137H763.264ZM863.275 75.4504C863.275 88.5697 852.563 96.873 838.033 96.873C826.491 96.873 817.606 92.2232 814.285 84.5011L820.347 80.6815C822.838 87.0751 829.812 90.6455 837.867 90.6455C847.997 90.6455 855.802 85.4975 855.802 76.0317V72.3782C852.48 76.945 846.419 80.7646 837.7 80.7646C823.004 80.7646 813.87 70.8836 813.87 58.6777C813.87 46.5549 823.004 36.7569 837.7 36.7569C846.419 36.7569 852.48 40.5765 855.802 45.0603V37.5873H863.275V75.4504ZM856.134 58.5117C856.134 48.5477 847.332 42.9844 838.531 42.9844C828.733 42.9844 821.094 49.1289 821.094 58.6777C821.094 68.3096 828.733 74.371 838.531 74.371C847.332 74.371 856.134 68.8908 856.134 58.8438V58.5117ZM868.798 70.8006L874.279 66.2338C878.181 72.7103 884.824 75.6165 893.21 75.6165C900.766 75.6165 906.579 73.4576 906.579 68.5587C906.579 63.4106 901.43 63.2446 890.802 62.0821C880.008 60.8366 871.455 59.0929 871.455 50.2083C871.455 42.2371 879.51 36.7569 891.134 36.7569C901.597 36.7569 909.402 40.9086 912.889 46.4718L907.824 50.8726C904.586 45.7245 898.524 42.9844 890.885 42.9844C883.163 42.9844 878.679 45.5585 878.679 49.5441C878.679 53.8618 883.08 54.36 892.38 55.4394C904.004 56.768 913.968 57.7644 913.968 67.9775C913.968 77.1111 904.088 81.927 893.293 81.927C882.333 81.927 873.033 78.1075 868.798 70.8006Z" fill="white"/>
<defs>
<clipPath id="clip0_3932_4322">
<rect width="319.167" height="94.7527" fill="white"/>
</clipPath>
</defs>
</svg>
